<svg width="20" height="20" viewBox="0 0 20 20" fill="none" xmlns="http://www.w3.org/2000/svg">
<path d="M14.1663 11.6666V16.6666M11.6663 14.1666H16.6663M4.99967 8.33331H6.66634C7.58682 8.33331 8.33301 7.58712 8.33301 6.66665V4.99998C8.33301 4.07951 7.58682 3.33331 6.66634 3.33331H4.99967C4.0792 3.33331 3.33301 4.07951 3.33301 4.99998V6.66665C3.33301 7.58712 4.0792 8.33331 4.99967 8.33331ZM13.333 8.33331H14.9997C15.9201 8.33331 16.6663 7.58712 16.6663 6.66665V4.99998C16.6663 4.07951 15.9201 3.33331 14.9997 3.33331H13.333C12.4125 3.33331 11.6663 4.07951 11.6663 4.99998V6.66665C11.6663 7.58712 12.4125 8.33331 13.333 8.33331ZM4.99967 16.6666H6.66634C7.58682 16.6666 8.33301 15.9205 8.33301 15V13.3333C8.33301 12.4128 7.58682 11.6666 6.66634 11.6666H4.99967C4.0792 11.6666 3.33301 12.4128 3.33301 13.3333V15C3.33301 15.9205 4.0792 16.6666 4.99967 16.6666Z" stroke="#2A2A31" stroke-width="1.5" stroke-linecap="round" stroke-linejoin="round"/>
</svg>
