<svg width="21" height="20" viewBox="0 0 21 20" fill="none" xmlns="http://www.w3.org/2000/svg">
<path d="M10.5009 13.6083C8.50924 13.6083 6.89258 11.9916 6.89258 9.99993C6.89258 8.00827 8.50924 6.3916 10.5009 6.3916C12.4926 6.3916 14.1092 8.00827 14.1092 9.99993C14.1092 11.9916 12.4926 13.6083 10.5009 13.6083ZM10.5009 7.6416C9.20091 7.6416 8.14258 8.69993 8.14258 9.99993C8.14258 11.2999 9.20091 12.3583 10.5009 12.3583C11.8009 12.3583 12.8592 11.2999 12.8592 9.99993C12.8592 8.69993 11.8009 7.6416 10.5009 7.6416Z" fill="#292D32"/>
<path d="M10.5004 17.5167C7.36706 17.5167 4.40872 15.6834 2.37539 12.5001C1.49206 11.1251 1.49206 8.8834 2.37539 7.50007C4.41706 4.31673 7.37539 2.4834 10.5004 2.4834C13.6254 2.4834 16.5837 4.31673 18.6171 7.50007C19.5004 8.87507 19.5004 11.1167 18.6171 12.5001C16.5837 15.6834 13.6254 17.5167 10.5004 17.5167ZM10.5004 3.7334C7.80872 3.7334 5.23372 5.35007 3.43372 8.17507C2.80872 9.15007 2.80872 10.8501 3.43372 11.8251C5.23372 14.6501 7.80872 16.2667 10.5004 16.2667C13.1921 16.2667 15.7671 14.6501 17.5671 11.8251C18.1921 10.8501 18.1921 9.15007 17.5671 8.17507C15.7671 5.35007 13.1921 3.7334 10.5004 3.7334Z" fill="#292D32"/>
</svg>
