<svg width="20" height="20" viewBox="0 0 20 20" fill="none" xmlns="http://www.w3.org/2000/svg">
<path d="M14.5331 12.8083C14.3747 12.8083 14.2164 12.75 14.0914 12.625C13.8497 12.3833 13.8497 11.9833 14.0914 11.7416L15.7831 10.05L14.0914 8.35828C13.8497 8.11662 13.8497 7.71662 14.0914 7.47495C14.3331 7.23328 14.7331 7.23328 14.9747 7.47495L17.1081 9.60828C17.3497 9.84995 17.3497 10.25 17.1081 10.4916L14.9747 12.625C14.8497 12.75 14.6914 12.8083 14.5331 12.8083Z" fill="#FB3748"/>
<path d="M16.6088 10.675H8.13379C7.79212 10.675 7.50879 10.3917 7.50879 10.05C7.50879 9.70838 7.79212 9.42505 8.13379 9.42505H16.6088C16.9505 9.42505 17.2338 9.70838 17.2338 10.05C17.2338 10.3917 16.9505 10.675 16.6088 10.675Z" fill="#FB3748"/>
<path d="M9.80046 17.2916C5.50879 17.2916 2.50879 14.2916 2.50879 9.99992C2.50879 5.70825 5.50879 2.70825 9.80046 2.70825C10.1421 2.70825 10.4255 2.99159 10.4255 3.33325C10.4255 3.67492 10.1421 3.95825 9.80046 3.95825C6.24212 3.95825 3.75879 6.44159 3.75879 9.99992C3.75879 13.5583 6.24212 16.0416 9.80046 16.0416C10.1421 16.0416 10.4255 16.3249 10.4255 16.6666C10.4255 17.0083 10.1421 17.2916 9.80046 17.2916Z" fill="#FB3748"/>
</svg>
