<svg width="21" height="20" viewBox="0 0 21 20" fill="none" xmlns="http://www.w3.org/2000/svg">
<path d="M4.66667 8.33325C3.75 8.33325 3 9.08325 3 9.99992C3 10.9166 3.75 11.6666 4.66667 11.6666C5.58333 11.6666 6.33333 10.9166 6.33333 9.99992C6.33333 9.08325 5.58333 8.33325 4.66667 8.33325Z" stroke="#292D32" stroke-width="1.5"/>
<path d="M16.3327 8.33325C15.416 8.33325 14.666 9.08325 14.666 9.99992C14.666 10.9166 15.416 11.6666 16.3327 11.6666C17.2493 11.6666 17.9993 10.9166 17.9993 9.99992C17.9993 9.08325 17.2493 8.33325 16.3327 8.33325Z" stroke="#292D32" stroke-width="1.5"/>
<path d="M10.5007 8.33325C9.58398 8.33325 8.83398 9.08325 8.83398 9.99992C8.83398 10.9166 9.58398 11.6666 10.5007 11.6666C11.4173 11.6666 12.1673 10.9166 12.1673 9.99992C12.1673 9.08325 11.4173 8.33325 10.5007 8.33325Z" stroke="#292D32" stroke-width="1.5"/>
</svg>
