<svg width="24" height="24" viewBox="0 0 24 24" fill="none" xmlns="http://www.w3.org/2000/svg">
<path d="M10.8416 2.43329L15.7583 4.61662C17.1749 5.24162 17.1749 6.27496 15.7583 6.89996L10.8416 9.08329C10.2833 9.33329 9.3666 9.33329 8.80827 9.08329L3.8916 6.89996C2.47493 6.27496 2.47493 5.24162 3.8916 4.61662L8.80827 2.43329C9.3666 2.18329 10.2833 2.18329 10.8416 2.43329Z" stroke="#292D32" stroke-width="1.5" stroke-linecap="round" stroke-linejoin="round"/>
<path d="M2.5 9.16669C2.5 9.86669 3.025 10.675 3.66667 10.9584L9.325 13.475C9.75833 13.6667 10.25 13.6667 10.675 13.475L16.3333 10.9584C16.975 10.675 17.5 9.86669 17.5 9.16669" stroke="#292D32" stroke-width="1.5" stroke-linecap="round" stroke-linejoin="round"/>
<path d="M2.5 13.3333C2.5 14.1083 2.95833 14.8083 3.66667 15.125L9.325 17.6416C9.75833 17.8333 10.25 17.8333 10.675 17.6416L16.3333 15.125C17.0417 14.8083 17.5 14.1083 17.5 13.3333" stroke="#292D32" stroke-width="1.5" stroke-linecap="round" stroke-linejoin="round"/>
</svg>
