<svg width="25" height="24" viewBox="0 0 25 24" fill="none" xmlns="http://www.w3.org/2000/svg">
<path d="M14.1603 0.00465262C8.14113 -0.181978 3.20987 5.2703 3.20987 12.0023H1.09309C0.560942 12.0023 0.30078 12.7222 0.679198 13.1354L3.97853 16.868C4.21504 17.1347 4.58163 17.1347 4.81814 16.868L8.11747 13.1354C8.48407 12.7222 8.2239 12.0023 7.69175 12.0023H5.57498C5.57498 6.80333 9.33551 2.60415 13.9711 2.6708C18.3702 2.73746 22.0716 6.90998 22.1308 11.869C22.1899 17.0813 18.4648 21.3339 13.8529 21.3339C11.949 21.3339 10.1869 20.6007 8.79153 19.3609C8.31851 18.9476 7.65628 18.9876 7.23056 19.4675C6.73388 20.0274 6.76936 20.9739 7.32516 21.4538C9.12265 23.0535 11.3813 24 13.8529 24C19.8248 24 24.6614 18.4411 24.4959 11.6557C24.3421 5.40361 19.7065 0.177952 14.1603 0.00465262ZM13.5572 6.67003C13.0724 6.67003 12.6703 7.12327 12.6703 7.66983V12.5756C12.6703 13.0421 12.895 13.482 13.2498 13.722L16.9393 16.1882C17.3651 16.4681 17.909 16.3082 18.1574 15.8416C18.4057 15.3617 18.2638 14.7485 17.8499 14.4685L14.4441 12.189V7.6565C14.4441 7.12327 14.0421 6.67003 13.5572 6.67003Z" fill="black"/>
</svg>
